<svg width="50" height="58" viewBox="0 0 50 58" fill="none" xmlns="http://www.w3.org/2000/svg">
<path d="M4.57795 27.3332L22.7779 9.17762V55.0665C22.7779 55.6559 23.0121 56.2211 23.4288 56.6379C23.8456 57.0546 24.4108 57.2887 25.0002 57.2887C25.5895 57.2887 26.1548 57.0546 26.5715 56.6379C26.9883 56.2211 27.2224 55.6559 27.2224 55.0665V9.17762L45.4224 27.3332C45.8475 27.6972 46.3943 27.8875 46.9536 27.8659C47.5129 27.8443 48.0434 27.6124 48.4392 27.2166C48.835 26.8209 49.0668 26.2903 49.0884 25.7311C49.11 25.1718 48.9198 24.625 48.5557 24.1998L25.0002 0.666504L1.42239 24.2443C1.1794 24.4417 0.980868 24.6883 0.83982 24.9678C0.698772 25.2474 0.618386 25.5536 0.603932 25.8663C0.589478 26.1791 0.641281 26.4914 0.755946 26.7827C0.870612 27.0741 1.04555 27.3379 1.2693 27.557C1.49305 27.776 1.76056 27.9452 2.05429 28.0537C2.34802 28.1621 2.66135 28.2072 2.97374 28.1861C3.28613 28.1649 3.59053 28.078 3.86699 27.9311C4.14345 27.7841 4.38573 27.5803 4.57795 27.3332Z" fill="url(#paint0_linear)"/>
<defs>
<linearGradient id="paint0_linear" x1="24.8458" y1="0.666504" x2="24.8458" y2="57.2887" gradientUnits="userSpaceOnUse">
<stop stop-color="#F43365"/>
<stop offset="1" stop-color="#F54351"/>
</linearGradient>
</defs>
</svg>
